<svg xmlns="http://www.w3.org/2000/svg" version="1.1" viewBox="-5.0 -10.0 110.0 135.0">
 <path d="m8.332 49.719c0 21.648 17.613 39.305 39.305 39.305 15.027 0 28.52-8.3711 35.223-21.816 1.0391-2.043 0.16406-4.5391-1.875-5.582-2.0391-1.0391-4.5391-0.20703-5.5781 1.875-5.2891 10.617-15.945 17.195-27.77 17.195-17.07 0-30.977-13.906-30.977-30.977s13.906-30.977 30.977-30.977c10.445 0 19.98 5.1328 25.707 13.648l-5.0156-1.7812c-2.1641-0.75-4.5781 0.375-5.3281 2.5391-0.75 2.1641 0.375 4.582 2.5391 5.3281l15.156 5.3711c0.45703 0.16797 0.91406 0.25 1.375 0.25 1.707 0 3.3281-1.082 3.9961-2.7891l5.3711-15.152c0.75-2.168-0.375-4.582-2.5391-5.332-2.168-0.78906-4.582 0.375-5.332 2.5391l-2.1875 6.1641c-7.0898-11.855-19.75-19.109-33.742-19.109-21.691 0-39.305 17.652-39.305 39.301z" fill-rule="evenodd"/>
<text x="0.0" y="117.5" font-size="5.0" font-weight="bold" font-family="Arbeit Regular, Helvetica, Arial-Unicode, Arial, Sans-serif" fill="#000000">Created by Helmi Salam Said</text><text x="0.0" y="122.5" font-size="5.0" font-weight="bold" font-family="Arbeit Regular, Helvetica, Arial-Unicode, Arial, Sans-serif" fill="#000000">from Noun Project</text></svg>